Coordinates
version=1
nRows=14
nColumns=40
inDegrees=yes

Units are S.I. units (second, meters, Newtons, ...)
If the header above contains a line with 'inDegrees', this indicates whether rotational values are in degrees (yes) or radians (no).

endheader
time	pelvis_tilt	pelvis_list	pelvis_rotation	pelvis_tx	pelvis_ty	pelvis_tz	hip_flexion_r	hip_adduction_r	hip_rotation_r	knee_angle_r	knee_angle_r_beta	ankle_angle_r	subtalar_angle_r	mtp_angle_r	hip_flexion_l	hip_adduction_l	hip_rotation_l	knee_angle_l	knee_angle_l_beta	ankle_angle_l	subtalar_angle_l	mtp_angle_l	lumbar_extension	lumbar_bending	lumbar_rotation	arm_flex_r	arm_add_r	arm_rot_r	elbow_flex_r	pro_sup_r	wrist_flex_r	wrist_dev_r	arm_flex_l	arm_add_l	arm_rot_l	elbow_flex_l	pro_sup_l	wrist_flex_l	wrist_dev_l
      4.99500000	    -41.46371640	      5.32708825	      2.54504226	     -0.43944249	      0.60148337	     -0.94273264	    108.34570212	    -19.69080292	      3.15017592	     92.25018687	      1.61006950	     27.10714731	      0.00000000	      0.00000000	    102.01618390	     -7.51701842	     -4.53537303	     90.29689600	      1.57597814	     33.29008156	      0.00000000	      0.00000000	    -27.50981245	     -1.35940829	     -7.51158021	      7.79046680	    -50.43483606	     72.37055898	     92.22978186	     85.17844114	      0.00000000	      0.00000000	      2.85795560	    -52.88031972	     72.08316808	     90.74776655	     87.33439906	      0.00000000	      0.00000000
      5.00000000	    -40.89516526	      5.50870871	      2.49220056	     -0.43718502	      0.60277771	     -0.94250329	    107.65127078	    -19.67424209	      3.31037719	     92.36859882	      1.61213617	     27.23841479	      0.00000000	      0.00000000	    101.19314059	     -7.44998987	     -4.57107631	     90.34730817	      1.57685800	     33.37007128	      0.00000000	      0.00000000	    -27.96992516	     -1.55310425	     -7.57537832	      7.98896291	    -50.26209374	     72.36361085	     92.10076600	     85.18916346	      0.00000000	      0.00000000	      3.10815937	    -52.72378825	     72.08285058	     90.53341241	     87.33142848	      0.00000000	      0.00000000
      5.00500000	    -41.11276027	      5.24906223	      2.66801540	     -0.43677063	      0.60249173	     -0.94251815	    107.73748914	    -19.77329387	      3.19231719	     92.39725442	      1.61263631	     27.43559402	      0.00000000	      0.00000000	    101.45666887	     -7.24878350	     -4.31975156	     90.34199441	      1.57676526	     33.47460627	      0.00000000	      0.00000000	    -27.40509356	     -1.25744306	     -7.63058279	      8.43108408	    -50.41207033	     73.51077330	     92.37519120	     80.10647735	      0.00000000	      0.00000000	      3.50711289	    -52.70429544	     72.83375608	     90.36899629	     87.68111525	      0.00000000	      0.00000000
      5.01000000	    -40.56807405	      5.39790035	      2.63693510	     -0.43452229	      0.60405715	     -0.94224765	    106.99540724	    -19.73946633	      3.33817448	     92.41971379	      1.61302830	     27.53636048	      0.00000000	      0.00000000	    100.61015761	     -7.20726981	     -4.41725572	     90.30658602	      1.57614726	     33.58831292	      0.00000000	      0.00000000	    -27.77540198	     -1.41068453	     -7.68680632	      8.61555428	    -50.22694586	     73.40877345	     92.15572800	     80.42620365	      0.00000000	      0.00000000	      3.72121922	    -52.47297362	     72.78771283	     90.07873798	     87.52748581	      0.00000000	      0.00000000
      5.01500000	    -40.21148320	      5.33791363	      2.57798960	     -0.43280036	      0.60496387	     -0.94184232	    106.41814573	    -19.66022911	      3.30072351	     92.48325077	      1.61413723	     27.90557052	      0.00000000	      0.00000000	    100.09705407	     -7.25798578	     -4.36682774	     90.35804726	      1.57704543	     33.95512185	      0.00000000	      0.00000000	    -27.81423466	     -1.37664947	     -7.44486678	      8.59571997	    -50.26659067	     73.02258337	     92.09235655	     85.23667727	      0.00000000	      0.00000000	      4.53372036	    -52.38892710	     73.77553932	     89.71276597	     87.32203763	      0.00000000	      0.00000000
      5.02000000	    -40.34845577	      4.90541214	      2.66329125	     -0.43197438	      0.60542092	     -0.94147232	    106.20158655	    -19.65685730	      2.91583603	     92.37277912	      1.61220913	     28.01029534	      0.00000000	      0.00000000	    100.23148511	     -7.11991243	     -3.83289678	     90.26308087	      1.57538795	     33.92787123	      0.00000000	      0.00000000	    -27.25806944	     -0.97052450	     -7.33810638	      8.95831144	    -50.25577719	     73.39292314	     91.98786506	     85.27660346	      0.00000000	      0.00000000	      4.62305779	    -52.18302291	     73.88225233	     89.56284321	     87.33586290	      0.00000000	      0.00000000
      5.02500000	    -40.11062200	      4.78139966	      2.56134244	     -0.43038491	      0.60654765	     -0.94075114	    105.67553766	    -19.46030232	      2.78777683	     92.32000567	      1.61128806	     28.08900405	      0.00000000	      0.00000000	     99.82438013	     -7.20924657	     -3.62701198	     90.21743220	      1.57459123	     34.01379906	      0.00000000	      0.00000000	    -27.12678034	     -0.99356848	     -7.18388098	      9.09474991	    -50.13435702	     73.45568318	     91.80911448	     85.29181278	      0.00000000	      0.00000000	      4.76346062	    -52.11721424	     73.86073801	     89.37314123	     87.32381212	      0.00000000	      0.00000000
      5.03000000	    -39.41305333	      5.18183776	      2.52973142	     -0.42774077	      0.60886823	     -0.94086259	    104.80534696	    -19.50552228	      3.14670625	     92.29059466	      1.61077475	     28.23461366	      0.00000000	      0.00000000	     98.63443312	     -7.07793826	     -3.97736136	     90.06754246	      1.57197517	     34.20577125	      0.00000000	      0.00000000	    -27.52526135	     -1.34910803	     -7.34384693	      9.35095193	    -49.97167968	     73.55170716	     91.56258996	     85.30901687	      0.00000000	      0.00000000	      5.08354722	    -51.92930474	     73.90861822	     88.93472727	     87.32191386	      0.00000000	      0.00000000
      5.03500000	    -39.35541028	      5.12729978	      2.56211675	     -0.42638187	      0.60977733	     -0.94047360	    104.56963056	    -19.46503932	      3.13812832	     92.30556128	      1.61103596	     28.22192830	      0.00000000	      0.00000000	     98.43555821	     -7.06840070	     -3.94946512	     90.05933656	      1.57183195	     34.19877164	      0.00000000	      0.00000000	    -27.07897555	     -1.37461023	     -7.32724281	      9.35722980	    -49.95486070	     73.55144192	     91.57563903	     85.31014683	      0.00000000	      0.00000000	      5.07631837	    -51.92648150	     73.91120006	     88.92312610	     87.32127420	      0.00000000	      0.00000000
      5.04000000	    -39.61152030	      4.38045926	      3.30170986	     -0.42585706	      0.61083261	     -0.94152755	    104.33940911	    -20.20380046	      2.57396197	     92.12121559	      1.60781852	     28.45949037	      0.00000000	      0.00000000	     98.67465211	     -6.03050846	     -3.02537454	     89.61191556	      1.56402298	     34.29613576	      0.00000000	      0.00000000	    -26.22125728	     -0.35175913	     -7.55287305	      9.62282007	    -50.02183104	     73.87999904	     91.40056041	     85.36310671	      0.00000000	      0.00000000	      5.38614769	    -51.50571122	     74.19207874	     88.33949657	     87.32301847	      0.00000000	      0.00000000
      5.04500000	    -38.88628574	      4.77366653	      2.62513370	     -0.42283086	      0.61348026	     -0.94022945	    103.25256943	    -19.47524360	      2.72514289	     91.91645420	      1.60424476	     28.51878897	      0.00000000	      0.00000000	     97.43101730	     -6.70442580	     -3.31659132	     89.58289815	      1.56351653	     34.45682995	      0.00000000	      0.00000000	    -26.51785923	     -1.02777967	     -7.09925713	      9.89398965	    -49.79203965	     74.11651643	     91.03957112	     85.39144014	      0.00000000	      0.00000000	      5.66998678	    -51.37105410	     74.20841525	     87.91657067	     87.31114449	      0.00000000	      0.00000000
      5.05000000	    -38.73680492	      4.75713305	      2.65424994	     -0.42109888	      0.61513849	     -0.94012062	    102.81049769	    -19.44836228	      2.75650986	     91.80268050	      1.60225904	     28.53169891	      0.00000000	      0.00000000	     97.00139715	     -6.53381026	     -3.16342721	     89.38095904	      1.55999202	     34.47522389	      0.00000000	      0.00000000	    -26.07128068	     -1.06510517	     -7.06264243	      9.96976858	    -49.71077316	     74.16726908	     90.92921232	     85.39962175	      0.00000000	      0.00000000	      5.73126506	    -51.27619192	     74.23221708	     87.84844187	     87.30792028	      0.00000000	      0.00000000
      5.05500000	    -38.13459453	      4.77640369	      2.50181347	     -0.41848622	      0.61792779	     -0.93964504	    101.74380213	    -19.34089200	      2.60341088	     91.59243591	      1.59858958	     28.73286097	      0.00000000	      0.00000000	     95.95703686	     -6.59512982	     -3.13825577	     89.16764160	      1.55626893	     34.76072449	      0.00000000	      0.00000000	    -26.11322878	     -1.20313141	     -6.88889247	     10.28326862	    -49.47891102	     74.40055172	     90.33023274	     85.43147107	      0.00000000	      0.00000000	      5.99912423	    -51.04711651	     74.29944365	     87.24455576	     87.29567656	      0.00000000	      0.00000000
      5.06000000	    -37.46718704	      4.62484056	      2.38894809	     -0.41563218	      0.62081510	     -0.93915739	    100.52834002	    -19.26745175	      2.32222426	     91.40135443	      1.59525458	     28.86334629	      0.00000000	      0.00000000	     94.89253732	     -6.59067940	     -2.88585309	     88.98327006	      1.55305104	     34.95520938	      0.00000000	      0.00000000	    -26.16360755	     -1.14261915	     -6.66615169	     10.53467374	    -49.34680384	     74.61480284	     89.95784984	     85.46996626	      0.00000000	      0.00000000	      6.20673344	    -50.89473058	     74.30178328	     86.95810374	     87.28895632	      0.00000000	      0.00000000
